# xmcd
#
# Track frame offsets:
#	150
#	17482
#	29678
#	43644
#	60700
#	83754
#	99275
#	114634
#	132426
#	154355
#	173068
#	189042
#	207199
#	254171
#
# Disc length: 4155 seconds
#
# Revision: 2
# Processed by: cddbd v1.5.2PL0 Copyright (c) Steve Scherf et al.
# Submitted via: audiograbber 1.83.01
#
DISCID=ba10390e
DTITLE=Dänu Wisler - D Jahr hei Flugu
DYEAR=1900
DGENRE=
TTITLE0=Vogu
TTITLE1=Bärner Blues and Rock n Roll
TTITLE2=I dChasi mit am Hung
TTITLE3=Härdöpfugstüd
TTITLE4=Eifache Maa
TTITLE5=Ig wot  i dBärge
TTITLE6=So wi a Stei
TTITLE7=Dr Himu het dr Blues
TTITLE8=Jahreszyte
TTITLE9=Ballon
TTITLE10=Talk To You
TTITLE11=Thunersee
TTITLE12=Bluesssession
TTITLE13=Daten-CD
EXTD=
EXTT0=
EXTT1=
EXTT2=
EXTT3=
EXTT4=
EXTT5=
EXTT6=
EXTT7=
EXTT8=
EXTT9=
EXTT10=
EXTT11=
EXTT12=
EXTT13=
PLAYORDER=
